<svg xmlns="http://www.w3.org/2000/svg" width="48" height="352" viewBox="0 0 48 352"><g><g><path fill="#222221" d="M22.458 349.801c8.075-105.358 6.401-212.008 4.454-317.605 4.428 10.68 8.86 21.363 13.293 32.042 2.06 4.964 8.939 1.714 7.54-3.209A363.544 363.544 0 0 0 25.463 2.345c-1.495-3.102-6.18-3.355-7.552.125C10.295 21.783 4.433 41.415.141 61.68c-1.096 5.163 6.998 6.043 8.087.9 2.735-12.91 6.233-25.513 10.356-37.958 1.547 108.428-2.122 216.868-.902 325.266.03 2.738 4.567 2.63 4.776-.088z"/></g></g></svg>