<svg xmlns="http://www.w3.org/2000/svg" width="186" height="319" viewBox="0 0 186 319"><g><g><path fill="#261b14" d="M131.661 3.544c-.6 24.94-1.198 49.883-1.8 74.825-.086 3.612 5.455 5.746 6.687 1.7 3.106-10.191 6.21-20.383 9.313-30.576 8.15 51.544-6.343 102.963-32.4 148.014-14.14 24.442-31.292 47.086-49.746 68.42-17.637 20.389-36.89 39.089-62.231 49.369-2.4.972-.843 4.518 1.557 3.671 24.157-8.514 43.234-24.638 60.383-43.286 21.678-23.568 41.446-49.29 57.37-77.108 27.46-47.974 41.717-103.578 30.455-158.278a162.458 162.458 0 0 0 29.357 20.21c3.057 1.647 6.257-2.863 4.066-5.365L137.878 1.81C136.07-.255 131.74.267 131.66 3.544z"/></g></g></svg>