<svg xmlns="http://www.w3.org/2000/svg" width="250" height="354" viewBox="0 0 250 354"><g><g><path fill="#222221" d="M50.809 22.53c-2.654 1.149-4.482 3.518-2.54 5.687l16.686 18.658c-15.17-9.008-30.342-18.02-45.519-27.031 18.553-2.203 37.1-4.41 55.652-6.617-6.655 1.828-13.368 3.517-20.27 4.948-3.019.63-4.207 2.553-4.01 4.354zM2.125 20.56c27.987 16.617 55.98 33.236 83.97 49.856 4.053 2.406 11.913-1.784 8.483-5.618-8.642-9.66-17.284-19.321-25.93-28.98 67.02 24.922 111.767 72.484 137.916 127.56 14.184 29.883 23.364 61.636 29.771 93.853 6.122 30.79 8.731 62.118-4.26 94.148-1.23 3.032 4.354 3.747 5.73.795 13.854-29.707 14.025-59.204 9.42-88.387-5.814-36.888-15.963-73.24-32.273-107.083C186.826 98.342 137.053 48.331 63.375 24.505a324.676 324.676 0 0 0 51.847-16.48c4.875-2.01 2.835-8.117-2.172-7.524L6.213 13.209c-4.132.488-7.765 5.167-4.088 7.351z"/></g></g></svg>