<svg xmlns="http://www.w3.org/2000/svg" width="308" height="177" viewBox="0 0 308 177"><g><g><path fill="#222221" d="M297.357 1.505c-15.827 19.283-31.655 38.57-47.485 57.855-2.292 2.793.76 7.885 4.222 5.456 8.722-6.119 17.443-12.238 26.164-18.36-25.312 45.635-68.39 77.23-116.659 96.689-26.19 10.555-53.647 17.839-81.323 23.289-26.451 5.207-53.135 8.09-79.434.59-2.49-.711-3.446 3.04-1.033 3.851 24.278 8.163 49.237 7.202 74.232 3.065 31.593-5.225 63.006-13.323 92.68-25.44 51.176-20.898 96.642-55.938 121.445-105.976a162.457 162.457 0 0 0 10.691 34c1.396 3.18 6.693 1.596 6.507-1.724l-4.04-70.835c-.155-2.74-3.887-4.993-5.967-2.46z"/></g></g></svg>