<svg xmlns="http://www.w3.org/2000/svg" width="353" height="48" viewBox="0 0 353 48"><g><g><path fill="#222221" d="M2.57 27.455c105.484 6.236 212.088 2.7 317.635-1.089-10.601 4.614-21.205 9.23-31.805 13.85-4.928 2.146-1.558 8.967 3.34 7.483a363.543 363.543 0 0 0 58.286-23.303c3.075-1.55 3.246-6.238-.256-7.548C330.326 9.569 310.595 4.05 290.257.113c-5.181-1.005-5.92 7.103-.758 8.102 12.955 2.509 25.618 5.787 38.133 9.692C219.247 21.346 110.76 19.571 2.4 22.681c-2.738.08-2.55 4.613.17 4.774z"/></g></g></svg>