<svg xmlns="http://www.w3.org/2000/svg" width="281" height="61" viewBox="0 0 281 61"><g><g><path fill="#222221" d="M260.94 24.773c.136-1.542-.733-3.105-2.667-2.934l-16.629 1.47 30.813-11.594c-4.499 8.927-8.995 17.852-13.491 26.78.98-3.532 2.066-7.045 3.366-10.56.568-1.539-.23-2.677-1.391-3.162zM277.474 3.81l-56.837 21.39c-2.744 1.032-2.664 5.848.753 5.546 8.611-.762 17.222-1.523 25.833-2.287-36.299 21.797-79.386 26.522-121.196 20.613-22.685-3.208-44.933-9.229-66.591-16.627C38.736 25.375 18.817 16.576 3.38.636 1.92-.875-.274 1.374 1.092 2.922 14.84 18.508 32.768 27.958 52.01 35.191c24.319 9.145 49.676 16.199 75.444 19.723 44.436 6.076 90.599-.1 128.326-25.197a131.81 131.81 0 0 0-6.28 28.227c-.31 2.8 4.055 3.837 5.27 1.429L280.667 7.96c1.003-1.988-.705-5.086-3.194-4.15z"/></g></g></svg>